PathFileType	4	(X/Y/Z)	C:\Users\Basilio\Documents\Thesis Gigler\squatting_fais\c3dfiles\054\SJ_pre5\markers_experimental.trc
DataRate	CameraRate	NumFrames	NumMarkers	Units	OrigDataRate	OrigDataStartFrame	OrigNumFrames
200.000000	200.000000	4	61	mm	200.000000	200	1602
Frame#	Time	FHD			LBHD			RBHD			C7			T10			CLAV			LSHO			LUUPA			LMUPA			LDUPA			LLEP			LMEP			LRAD			LUL			LRFIN			RSHO			RUPA1			RMUPA			RDUPA			RLEP			RMEP			RRAD			RUL			RUFIN			LASI			RASI			USACR			LSACR			RSACR			LTHI1			LTHI2			LTHI3			LTHI4			LLFC			LMFC			LTIB1			LTIB2			LTIB3			LTIB4			LLMAL			LMMAL			LHEE			LMT1			LMT2			LMT5			RTHI			RTHI2			RTHI3			RTHI4			RLFC			RMFC			RTIB1			RTIB2			RTIB3			RTIB4			RLMAL			RMMAL			RHEE			RMT1			RMT2			RMT5			
		X1	Y1	Z1	X2	Y2	Z2	X3	Y3	Z3	X4	Y4	Z4	X5	Y5	Z5	X6	Y6	Z6	X7	Y7	Z7	X8	Y8	Z8	X9	Y9	Z9	X10	Y10	Z10	X11	Y11	Z11	X12	Y12	Z12	X13	Y13	Z13	X14	Y14	Z14	X15	Y15	Z15	X16	Y16	Z16	X17	Y17	Z17	X18	Y18	Z18	X19	Y19	Z19	X20	Y20	Z20	X21	Y21	Z21	X22	Y22	Z22	X23	Y23	Z23	X24	Y24	Z24	X25	Y25	Z25	X26	Y26	Z26	X27	Y27	Z27	X28	Y28	Z28	X29	Y29	Z29	X30	Y30	Z30	X31	Y31	Z31	X32	Y32	Z32	X33	Y33	Z33	X34	Y34	Z34	X35	Y35	Z35	X36	Y36	Z36	X37	Y37	Z37	X38	Y38	Z38	X39	Y39	Z39	X40	Y40	Z40	X41	Y41	Z41	X42	Y42	Z42	X43	Y43	Z43	X44	Y44	Z44	X45	Y45	Z45	X46	Y46	Z46	X47	Y47	Z47	X48	Y48	Z48	X49	Y49	Z49	X50	Y50	Z50	X51	Y51	Z51	X52	Y52	Z52	X53	Y53	Z53	X54	Y54	Z54	X55	Y55	Z55	X56	Y56	Z56	X57	Y57	Z57	X58	Y58	Z58	X59	Y59	Z59	X60	Y60	Z60	X61	Y61	Z61	

201	1	-228.7443237304688	1758.194702148438	-889.423034667969	-376.4006347656251	1672.810791015625	-959.6162109375002	-392.4467163085939	1667.226806640625	-820.6111450195315	-401.7824096679689	1518.997314453125	-880.441101074219	-429.3538513183595	1181.212890625	-886.4660644531252	-254.5010528564454	1466.6298828125	-889.111511230469	-322.7339782714844	1522.068237304688	-1045.286376953125	-411.3936462402345	1390.902587890625	-1216.75048828125	-371.1996459960938	1358.681640625	-1225.966064453125	-416.1170043945314	1336.86962890625	-1260.938720703125	-405.308563232422	1273.996337890625	-1283.885131835938	-475.6721496582032	1248.810546875	-1234.050659179688	-342.8460693359376	1078.096313476563	-1119.40478515625	-295.2404174804688	1046.082763671875	-1171.573852539063	-291.4277343750001	1093.760131835938	-1081.49462890625	-303.4602661132813	1520.793823242188	-722.4023437500001	-387.9046936035157	1373.321899414063	-549.7509155273439	-359.7971801757813	1333.4970703125	-546.9326171875001	-407.9777221679689	1315.756713867188	-514.5261840820314	-413.0704956054689	1265.89794921875	-498.9312438964845	-477.742645263672	1253.647094726563	-556.1317749023439	-362.6728210449219	1059.846923828125	-672.6944580078126	-300.2749328613282	1083.154418945313	-696.5588378906251	-314.0253906250001	1035.621215820313	-613.1827392578126	-229.1110229492188	1017.139038085938	-1012.622863769531	-224.1897583007813	1024.750854492188	-759.3078613281251	-421.0962829589845	1090.972045898438	-884.273132324219	-423.5445556640626	1057.536010742188	-911.2288818359377	-421.452117919922	1057.548583984375	-855.5395507812502	-357.6365051269532	800.5396728515627	-1114.71875	-333.5529479980469	720.5260620117189	-1131.392944335938	-286.4689941406251	721.0659179687501	-1134.590698242188	-364.2960205078126	668.1586914062501	-1118.10546875	-373.8643493652344	512.1852416992189	-1122.51611328125	-305.5988464355469	478.1897888183595	-1009.539306640625	-325.8385620117188	346.0615234375001	-1132.422119140625	-393.4787902832032	312.8338012695313	-1180.995361328125	-349.1714782714844	305.6880187988282	-1170.666137695313	-344.3098754882813	222.4360046386719	-1157.687744140625	-413.485809326172	90.14773559570314	-1210.536499023438	-354.8331909179688	98.55692291259768	-1131.922973632813	-460.9870910644532	51.38608169555665	-1142.601684570313	-244.7806549072266	55.46726226806642	-1192.648193359375	-252.9579315185547	58.17019653320314	-1241.7412109375	-316.1083374023438	36.85724258422852	-1278.638916015625	-356.3070373535157	731.9502563476564	-671.6037597656251	-327.0919799804688	673.8947753906251	-662.0256347656251	-294.2513427734376	671.4539794921876	-660.7128295898439	-361.0629577636719	598.8341064453126	-680.1252441406251	-382.3791503906251	505.2303161621095	-678.9451293945314	-300.3124389648438	489.4087219238282	-788.7655029296877	-335.2278442382813	397.9859008789064	-653.0787963867189	-415.2645263671876	330.3999938964844	-632.5892944335939	-369.5556945800782	322.0934143066407	-625.8947753906251	-349.7550659179688	269.0142517089844	-636.0342407226564	-414.3972167968751	91.67273712158205	-606.6897583007814	-350.9728393554688	100.1824417114258	-677.8043823242189	-452.4333801269532	48.06206512451173	-678.1449584960939	-235.5932769775391	54.6632423400879	-611.7481689453126	-251.3190612792969	55.31824493408205	-565.7617797851564	-312.4159240722657	32.83595657348634	-535.0200195312501	
202	1.005	-229.1433868408204	1758.310424804688	-889.2224731445315	-376.5534362792969	1672.838134765625	-959.5156860351565	-392.5554809570314	1667.230834960938	-820.569763183594	-401.786590576172	1519.05859375	-880.3747558593752	-429.1667785644532	1181.258544921875	-886.4992675781252	-254.3623809814454	1466.762939453125	-889.1013793945315	-322.7503051757813	1522.139892578125	-1045.255126953125	-411.2059326171876	1390.860961914063	-1216.673461914063	-371.0893554687501	1358.6796875	-1225.853881835938	-415.7769165039064	1336.749755859375	-1260.902587890625	-405.1553955078126	1273.94970703125	-1283.785888671875	-475.540985107422	1248.761840820313	-1233.977905273438	-342.7410583496094	1078.04296875	-1119.295654296875	-295.1163330078126	1046.035522460938	-1171.458618164063	-291.2843322753907	1093.66015625	-1081.389282226563	-303.4355163574219	1520.908447265625	-722.3496704101564	-387.7195129394532	1373.357788085938	-549.6290283203126	-359.5683593750001	1333.439086914063	-546.8671875000001	-407.7351379394532	1315.747802734375	-514.4168701171876	-412.7958374023439	1265.930419921875	-498.9011230468751	-477.4967041015626	1253.684692382813	-556.0561523437501	-362.6119079589844	1059.844482421875	-672.6677856445314	-300.2556762695313	1083.141723632813	-696.5864868164064	-313.7063598632813	1035.559814453125	-613.2249145507814	-229.1389465332032	1017.150207519531	-1012.531005859375	-224.3022766113282	1024.704223632813	-759.3804321289064	-421.0216369628907	1090.973266601563	-884.2815551757815	-423.557586669922	1057.5830078125	-911.2110595703127	-421.5064697265626	1057.606323242188	-855.537536621094	-358.0000000000001	800.7352294921877	-1114.645263671875	-333.5542907714844	720.4710693359376	-1131.445922851563	-286.4225769042969	721.0178833007814	-1134.556518554688	-364.2789001464844	668.1126098632814	-1118.0771484375	-374.1411743164063	512.2351684570314	-1122.48583984375	-305.5765075683594	478.1376037597657	-1009.535583496094	-325.8148193359376	346.0211486816407	-1132.423828125	-393.4505004882814	312.8298950195313	-1181.042602539063	-349.1013488769532	305.6958618164063	-1170.688110351563	-344.2637939453126	222.406967163086	-1157.644775390625	-413.2730712890626	90.02794647216798	-1210.5751953125	-354.8200073242188	98.56001281738284	-1131.889526367188	-460.9768371582032	51.4125442504883	-1142.567504882813	-244.8319549560547	55.48744964599611	-1192.611694335938	-252.9221954345704	58.15509033203126	-1241.74853515625	-316.0591125488282	36.85717010498048	-1278.645141601563	-356.2768859863282	731.9583740234376	-671.4115600585939	-327.0259094238282	673.8794555664064	-661.9342651367189	-294.2294006347657	671.4515380859376	-660.6426391601564	-361.0604858398438	598.8073120117189	-680.0509643554689	-382.3102111816407	505.2441711425782	-678.8443603515626	-300.2597351074219	489.527557373047	-788.7521972656252	-335.2148132324219	397.9431762695314	-652.9697875976564	-415.2666015625001	330.3760375976563	-632.5067749023439	-369.4775390625001	321.9902954101563	-625.8227539062501	-349.6910095214844	268.9584960937501	-636.1056518554689	-414.3963317871095	91.67964935302736	-606.6742553710939	-350.9666442871094	100.1566467285157	-677.8724975585939	-452.4247131347657	48.04924774169923	-678.1713256835939	-235.5668182373047	54.605037689209	-611.6907958984376	-251.313461303711	55.32447433471681	-565.7956542968751	-312.4286804199219	32.84279251098634	-535.0493164062501	
203	1.01	-229.3263854980469	1758.405883789063	-889.0921020507815	-376.6375732421876	1672.911254882813	-959.465026855469	-392.7554016113282	1667.210327148438	-820.5086059570315	-401.7983703613282	1519.10107421875	-880.3626098632815	-429.0539855957032	1181.29443359375	-886.5115966796877	-254.4163665771485	1467.038818359375	-889.0286865234377	-322.7323913574219	1522.271118164063	-1045.190673828125	-411.0805053710939	1390.841064453125	-1216.619262695313	-371.0298156738282	1358.651489257813	-1225.776000976563	-415.6237792968751	1336.707885742188	-1260.776489257813	-405.078094482422	1273.941162109375	-1283.664184570313	-475.4162902832032	1248.732299804688	-1233.885986328125	-342.7019653320313	1077.96337890625	-1119.244384765625	-295.1003723144532	1045.99462890625	-1171.364990234375	-291.2520751953126	1093.626708984375	-1081.264404296875	-303.3910522460938	1521.022338867188	-722.2858276367189	-387.5152282714845	1373.382080078125	-549.5286254882814	-359.4140930175782	1333.430541992188	-546.8336791992189	-407.470672607422	1315.718383789063	-514.3303833007814	-412.4723205566407	1265.942138671875	-498.863006591797	-477.281463623047	1253.709106445313	-555.8729248046876	-362.4654235839844	1059.807983398438	-672.6839599609376	-300.1799621582032	1083.129516601563	-696.6195678710939	-313.3862609863282	1035.533935546875	-613.1654052734376	-229.1632843017579	1017.045715332031	-1012.425109863281	-224.3816223144532	1024.6865234375	-759.4743041992189	-420.8488769531251	1090.98095703125	-884.3063964843752	-423.5556945800782	1057.632690429688	-911.2489013671877	-421.5176391601564	1057.676879882813	-855.5445556640627	-358.0220947265626	800.7182617187502	-1114.641967773438	-333.5311889648438	720.4801025390626	-1131.448486328125	-286.7269592285157	721.1809082031251	-1134.61474609375	-364.2880249023438	668.0926513671876	-1118.09814453125	-374.1166076660157	512.1877441406251	-1122.487915039063	-305.5667419433594	478.1418762207032	-1009.516052246094	-325.5351867675782	346.0818176269532	-1132.555053710938	-393.4126892089845	312.7782592773438	-1181.003051757813	-349.1231689453126	305.6228942871094	-1170.696533203125	-344.1701354980469	222.3567047119141	-1157.720947265625	-413.4842529296876	90.1482391357422	-1210.478637695313	-354.8155517578126	98.51910400390628	-1131.880615234375	-460.9610595703126	51.37830352783205	-1142.56982421875	-244.8166198730469	55.50542068481447	-1192.611206054688	-252.9171447753907	58.15354537963869	-1241.749755859375	-316.1393127441407	36.87387847900391	-1278.597290039063	-356.2748413085938	731.9894409179689	-671.2971801757814	-326.9850463867188	673.8665161132814	-661.8250122070314	-294.1849670410157	671.4441528320314	-660.5581665039064	-361.0358581542969	598.8120117187501	-679.9318847656251	-382.2533264160157	505.2503356933595	-678.7518920898439	-300.3128967285157	489.5100402832032	-788.6673583984377	-335.1245727539063	397.9450073242189	-652.8843994140626	-415.1495666503907	330.3687744140626	-632.4226074218751	-369.4234619140626	321.9984741210938	-625.7475585937501	-349.6790771484376	268.9706115722657	-636.0319213867189	-414.3651428222657	91.72683715820314	-606.6611328125001	-350.9610900878907	100.163330078125	-677.8742065429689	-452.4353942871095	48.05641937255861	-678.1765136718751	-235.5265808105469	54.55612182617189	-611.7653808593751	-251.3197784423829	55.3230323791504	-565.7656860351564	-312.4193420410157	32.86498260498048	-535.0875244140626	
204	1.015	-229.5039978027344	1758.560424804688	-889.047790527344	-376.8162231445313	1672.93798828125	-959.4229736328127	-392.9071044921876	1667.204345703125	-820.3966064453127	-401.8019409179689	1519.146606445313	-880.2913208007815	-428.9150390625001	1181.338623046875	-886.5102539062502	-254.4122772216797	1467.269653320313	-888.9714965820315	-322.7411804199219	1522.353637695313	-1045.149291992188	-411.0581359863282	1390.898071289063	-1216.574829101563	-370.9537353515626	1358.685668945313	-1225.692138671875	-415.4685363769532	1336.681030273438	-1260.672119140625	-404.9768676757814	1273.934448242188	-1283.532958984375	-475.2619934082032	1248.71240234375	-1233.852783203125	-342.5569458007813	1077.861450195313	-1119.188720703125	-294.9370422363282	1045.955932617188	-1171.245239257813	-291.2090759277344	1093.581420898438	-1081.154541015625	-303.2832031250001	1521.159423828125	-722.2216796875001	-387.3467102050782	1373.394287109375	-549.4455566406251	-359.1183776855469	1333.413696289063	-546.7955322265626	-407.1804504394532	1315.7236328125	-514.2919921875001	-412.2567138671876	1265.960205078125	-498.679656982422	-477.0595092773439	1253.742797851563	-555.6955566406251	-362.3836669921876	1059.851196289063	-672.6504516601564	-300.1329650878907	1083.143676757813	-696.6405029296876	-313.2106018066407	1035.551513671875	-613.2669067382814	-229.2166290283204	1016.992431640625	-1012.355895996094	-224.4163818359376	1024.674560546875	-759.5385131835939	-420.8567199707032	1091.017700195313	-884.2899169921877	-423.5359191894532	1057.656005859375	-911.2877197265627	-421.4985961914064	1057.686279296875	-855.5479736328127	-357.8291625976563	800.582214355469	-1114.68017578125	-333.5303649902344	720.4191894531251	-1131.4248046875	-286.3626098632813	721.0142211914064	-1134.481811523438	-364.1778259277344	668.0533447265626	-1118.114135742188	-374.0630187988282	512.1821289062501	-1122.517700195313	-305.5585632324219	478.1552734375001	-1009.506896972656	-325.6303405761719	345.9274291992188	-1132.50146484375	-393.2207641601564	312.7821044921876	-1181.077026367188	-349.0462951660157	305.6020202636719	-1170.712524414063	-344.1324768066407	222.3278198242188	-1157.696044921875	-413.5169677734376	90.1616897583008	-1210.473510742188	-354.8253784179688	98.51770019531253	-1131.870971679688	-460.957977294922	51.40189361572267	-1142.559204101563	-244.8373413085938	55.51074218750001	-1192.598999023438	-252.9142761230469	58.15156555175783	-1241.751831054688	-316.0710449218751	36.82576370239259	-1278.620971679688	-356.2361450195313	731.9672241210939	-671.1711425781251	-326.9323120117188	673.8699951171876	-661.7493286132814	-294.1753845214844	671.4422607421876	-660.4699096679689	-361.0457458496094	598.7958984375001	-679.8289184570314	-382.1853637695313	505.2181701660157	-678.6619873046876	-300.3211975097657	489.587371826172	-788.660095214844	-335.0870666503907	397.9236145019532	-652.7865600585939	-415.0644836425782	330.2795104980469	-632.3818359375001	-369.3124389648438	321.9752807617188	-625.6651611328126	-349.5949707031251	268.9043579101563	-636.0954589843751	-414.3372802734376	91.70330810546876	-606.6720581054689	-350.9636230468751	100.1771774291992	-677.8994750976564	-452.4314575195314	48.04122161865236	-678.1814575195314	-235.5394439697266	54.57078552246095	-611.7442016601564	-251.3113861083985	55.30950164794923	-565.8065185546876	-312.4321899414063	32.85942840576173	-535.0842285156251	
